/vscmnt/brussel_pixiu_data/_data_brussel/112/vsc11236/PredSimResults/SUBJ07mtu3D/worker6.mot
version=1
nRows=6
nColumns=50
inDegrees=yes
endheader
                time	         pelvis_tilt	         pelvis_list	     pelvis_rotation	           pelvis_tx	           pelvis_ty	           pelvis_tz	       hip_flexion_r	     hip_adduction_r	      hip_rotation_r	        knee_angle_r	       ankle_angle_r	         mtp_angle_r	       hip_flexion_l	     hip_adduction_l	      hip_rotation_l	        knee_angle_l	       ankle_angle_l	         mtp_angle_l	    lumbar_extension	      lumbar_bending	     lumbar_rotation	 ercspn_r/activation	 intobl_r/activation	 extobl_r/activation	    abd_r/activation	    add_r/activation	hamstrings_r/activation	bifemsh_r/activation	glut_max_r/activation	iliopsoas_r/activation	rect_fem_r/activation	  vasti_r/activation	gastroc_r/activation	 soleus_r/activation	tib_ant_r/activation	 ercspn_l/activation	 intobl_l/activation	 extobl_l/activation	    abd_l/activation	    add_l/activation	hamstrings_l/activation	bifemsh_l/activation	glut_max_l/activation	iliopsoas_l/activation	rect_fem_l/activation	  vasti_l/activation	gastroc_l/activation	 soleus_l/activation	tib_ant_l/activation	
          0.55117840	         -3.28360728	         -0.45294469	         -8.43616234	          0.67243764	          0.85024931	          0.01361615	        -15.47440917	          0.69484722	          3.87899146	         -7.90934559	          8.64736708	         26.73748354	         29.25752282	         -2.83176909	         -4.44557011	         -6.44075640	          3.12008562	          0.27073469	        -11.95182562	          2.23309054	          0.79425755	          0.12779105	          0.00999999	          0.00999999	          0.03854867	          0.00999999	          0.01000034	          0.14740147	          0.01842894	          0.16518228	          0.01183728	          0.00999999	          0.15790318	          0.28558869	          0.01963381	          0.13010614	          0.14670635	          0.00999999	          0.01712816	          0.12143756	          0.07455000	          0.11489948	          0.07364849	          0.03819825	          0.01183725	          0.00999999	          0.00999999	          0.00999999	          0.39079940	
          0.56220196	         -3.28087684	         -0.47574978	         -8.47362835	          0.68803845	          0.84869057	          0.01338360	        -16.06630291	          0.58893286	          3.55867722	         -8.70975932	          7.73590986	         28.28439407	         29.09031112	         -2.61995314	         -4.08789343	         -7.98208739	          2.77208792	          0.25440526	        -11.85515567	          1.83087137	          1.00814894	          0.13830168	          0.00999999	          0.01000000	          0.03256553	          0.01738681	          0.01428701	          0.12452329	          0.01556858	          0.13954434	          0.01000002	          0.00999999	          0.13339503	          0.26966697	          0.01658645	          0.10991237	          0.12666411	          0.00999999	          0.01446970	          0.10262292	          0.06697284	          0.12227074	          0.12087240	          0.03226950	          0.01000000	          0.00999999	          0.01658641	          0.01183725	          0.41712332	
          0.57322553	         -3.27185912	         -0.49847292	         -8.46252930	          0.70380222	          0.84736143	          0.01307266	        -16.54671593	          0.49552597	          3.19993392	         -9.72586212	          6.70745486	         29.78088177	         28.84869811	         -2.45866464	         -3.72229417	         -9.45730060	          2.35178663	          0.24887298	        -11.75410366	          1.42585796	          1.21803422	          0.15117770	          0.00999999	          0.00999999	          0.02751104	          0.01468820	          0.01206968	          0.10519603	          0.01315218	          0.11788567	          0.01000011	          0.01000002	          0.11269079	          0.24757851	          0.01401207	          0.13658122	          0.10700457	          0.00999999	          0.09039171	          0.11866284	          0.06113280	          0.10713719	          0.12189391	          0.02726095	          0.00999999	          0.00999999	          0.01401203	          0.00999999	          0.48466080	
          0.58424910	         -3.25856759	         -0.54121580	         -8.40496363	          0.71954556	          0.84641976	          0.01265999	        -16.83938610	          0.43704704	          2.81460762	        -11.06327234	          5.53876408	         31.19232807	         28.60884439	         -2.31394381	         -3.41996183	        -10.91720375	          1.88872446	          0.22896136	        -11.67021508	          1.04332003	          1.42239244	          0.18874729	          0.00999999	          0.00999999	          0.02324105	          0.02064156	          0.01219915	          0.08886856	          0.01111084	          0.09958864	          0.01183704	          0.01209659	          0.09520005	          0.22422322	          0.01183725	          0.14976315	          0.09039639	          0.00999999	          0.13797447	          0.14860418	          0.05209316	          0.09050843	          0.14865058	          0.02302978	          0.00999999	          0.00999999	          0.01183723	          0.00999999	          0.51242242	
          0.59527267	         -3.24079157	         -0.60110045	         -8.30573334	          0.73515393	          0.84598628	          0.01215415	        -16.88248055	          0.41150514	          2.40272163	        -12.81112739	          4.23807393	         32.42611593	         28.42243485	         -2.17902751	         -3.16491221	        -12.50626981	          1.66587354	          0.20870510	        -11.60922411	          0.68170856	          1.61994980	          0.22428518	          0.00999999	          0.00999999	          0.01963380	          0.03861877	          0.01334857	          0.07507527	          0.00999999	          0.08413149	          0.01000005	          0.01022044	          0.08042405	          0.18942154	          0.00999999	          0.16117496	          0.07636597	          0.00999999	          0.18016861	          0.17922112	          0.04436216	          0.07646061	          0.17471460	          0.01945533	          0.00999999	          0.01189622	          0.00999999	          0.00999999	          0.50558545	
          0.60629623	         -3.21903116	         -0.67616263	         -8.16647834	          0.75052314	          0.84616295	          0.01156877	        -16.59710573	          0.41858006	          1.95493794	        -15.09602450	          2.85416134	         33.30086665	         28.29871566	         -2.05649745	         -2.95861890	        -14.22997114	          1.72151131	          0.19017735	        -11.57453643	          0.34061698	          1.80812077	          0.25305086	          0.00999999	          0.00999999	          0.01658644	          0.06952730	          0.01464838	          0.06342284	          0.00999999	          0.07107345	          0.01000000	          0.00999999	          0.06794143	          0.16002142	          0.00999999	          0.17176455	          0.06451321	          0.00999999	          0.20439925	          0.20890907	          0.04263146	          0.06459316	          0.18912942	          0.01643567	          0.00999999	          0.03005045	          0.00999999	          0.00999999	          0.48138079	
